<svg xmlns="http://www.w3.org/2000/svg" viewBox="0 0 512 512">
  <rect width="512" height="512" rx="60" fill="#5865F2"/>
  <path d="M386.1 175.7c-25.5-20.3-61.9-23.2-63.5-23.3l-3.1 3.5c38.3 11.7 56.1 28.7 56.1 28.7-48.5-26.7-110.7-26.7-162.4 0 0 0 18.4-16.7 58.9-28.6L269 156c-1.6 0-37.6 3-63.5 23.3 0 0-32.5 59.7-32.5 133.1 0 0 19 33.1 68.9 34.7 0 0 8.4-10.3 15.2-19-28.8-8.6-39.8-26.6-39.8-26.6 18.2 13.5 46.3 20.2 72.1 22.3 36.3 2.9 71.9-8.3 101.8-22.3 0 0-11.2 18.1-40.8 26.5 6.8 8.7 15 18.6 15 18.6 49.9-1.6 68.9-34.7 68.9-34.7-.1-73.4-32.6-133.1-32.6-133.1zm-136 107.1c-12.9 0-23.5-11.7-23.5-26.2 0-14.4 10.4-26.2 23.5-26.2s23.7 11.7 23.5 26.2c0 14.4-10.4 26.2-23.5 26.2zm84 0c-12.9 0-23.5-11.7-23.5-26.2 0-14.4 10.4-26.2 23.5-26.2s23.5 11.7 23.5 26.2c0 14.4-10.5 26.2-23.5 26.2z" fill="white"/>
</svg>