<svg xmlns="http://www.w3.org/2000/svg" viewBox="0 0 512 512">
  <rect width="512" height="512" rx="256" fill="#AB9FF2"/>
  <path d="M345.5 213c-7.3-9.3-18.7-14.7-30.6-14.7-7.5 0-14.3 2.1-20.8 5.9-6.5-3.8-13.3-5.9-20.8-5.9-21.8 0-39.5 17.7-39.5 39.5v76.1c0 3 2.5 5.5 5.5 5.5h29.9c3 0 5.5-2.5 5.5-5.5v-76.1c0-5.7 4.6-10.3 10.3-10.3 5.7 0 10.3 4.6 10.3 10.3v76.1c0 3 2.5 5.5 5.5 5.5h18.6c3 0 5.5-2.5 5.5-5.5v-76.1c0-5.7 4.6-10.3 10.3-10.3 5.7 0 10.3 4.6 10.3 10.3v76.1c0 3 2.5 5.5 5.5 5.5h29.9c3 0 5.5-2.5 5.5-5.5v-76.1c0-11.9-5.4-23.3-14.7-30.6l-26.2-24.2z" fill="white"/>
  <path d="M184.8 152h-29.6c-3 0-5.5 2.5-5.5 5.5v141.4c0 3 2.5 5.5 5.5 5.5h29.6c3 0 5.5-2.5 5.5-5.5V157.5c0-3-2.5-5.5-5.5-5.5z" fill="white"/>
</svg>