<svg xmlns="http://www.w3.org/2000/svg" viewBox="0 0 1024 1024">
  <rect width="1024" height="1024" rx="512" fill="#1DA1F2"/>
  <path d="M739 357c-22 10-45 16-68 19 25-15 43-38 52-65-23 13-48 23-74 28-22-23-52-37-86-37-65 0-118 52-118 117 0 9 1 18 3 27-98-5-184-52-242-123-10 17-16 37-16 58 0 41 21 77 52 98-19-1-37-6-53-15v2c0 57 41 104 94 115-10 3-20 4-31 4-7 0-15-1-22-2 15 47 59 80 110 81-40 31-91 50-146 50-10 0-19-1-28-2 52 34 114 53 181 53 217 0 336-180 336-336 0-5 0-10 0-15 23-17 43-38 59-61z" fill="white"/>
</svg>