<svg xmlns="http://www.w3.org/2000/svg" viewBox="0 0 512 512">
  <defs>
    <style>.wc-connect-color{fill:#3b99fc;}</style>
  </defs>
  <path class="wc-connect-color" d="M169.21,175.26c48.13-47.37,126.24-47.37,174.37,0l5.79,5.71a5.97,5.97,0,0,1,0,8.5l-19.85,19.51a3.02,3.02,0,0,1-4.21,0l-7.95-7.83c-33.62-33.06-88.13-33.06-121.74,0l-8.53,8.38a3.02,3.02,0,0,1-4.21,0l-19.85-19.51a5.97,5.97,0,0,1,0-8.5Zm215.87,40.61,17.68,17.39a5.97,5.97,0,0,1,0,8.5L296.83,346.85a6.16,6.16,0,0,1-8.63,0h0l-66.19-65.09a1.51,1.51,0,0,0-2.1,0l-66.19,65.09a6.16,6.16,0,0,1-8.63,0h0L39.15,241.76a5.97,5.97,0,0,1,0-8.5l17.68-17.39a6.16,6.16,0,0,1,8.64,0L131.57,280a1.51,1.51,0,0,0,2.1,0l66.19-65.09a6.16,6.16,0,0,1,8.63,0h0l66.19,65.09a1.51,1.51,0,0,0,2.1,0l66.11-65.1a6.17,6.17,0,0,1,8.65.02Z"/>
  <path class="wc-connect-color" d="M256,0c141.38,0,256,114.62,256,256S397.38,512,256,512,0,397.38,0,256,114.62,0,256,0Z" style="fill-opacity:0.15"/>
</svg>